<svg xmlns="http://www.w3.org/2000/svg" version="1.1" xmlns:xlink="http://www.w3.org/1999/xlink" width="24" height="24" x="0" y="0" viewBox="0 0 28 28" style="enable-background:new 0 0 512 512" xml:space="preserve" class=""><g><switch><g><path fill="#ffffff" d="M21 20h-8c-1.7 0-3-1.3-3-3V5c0-1.7 1.3-3 3-3h8c1.7 0 3 1.3 3 3v12c0 1.7-1.3 3-3 3zM13 4c-.6 0-1 .4-1 1v12c0 .6.4 1 1 1h8c.6 0 1-.4 1-1V5c0-.6-.4-1-1-1z" opacity="1" data-original="#0a0b12" class=""></path><path fill="#ffffff" d="M15 26H7c-1.7 0-3-1.3-3-3V11c0-1.7 1.3-3 3-3 .6 0 1 .4 1 1s-.4 1-1 1-1 .4-1 1v12c0 .6.4 1 1 1h8c.6 0 1-.4 1-1s.4-1 1-1 1 .4 1 1c0 1.7-1.3 3-3 3z" opacity="1" data-original="#858589" class=""></path></g></switch></g></svg>